<svg width="32" height="32" viewBox="0 0 32 32" xmlns="http://www.w3.org/2000/svg">
  <g transform="translate(-13 1) scale(1.6)">
    <path fill-rule="evenodd" clip-rule="evenodd" d="M10.677 11.501c0.685 0 1.241 -0.561 1.241 -1.253s-0.555 -1.253 -1.241 -1.253c-0.686 0 -1.241 0.561 -1.241 1.253s0.555 1.252 1.241 1.252m2.059 -1.984c0.847 0 1.534 -0.693 1.534 -1.548s-0.687 -1.548 -1.534 -1.548 -1.534 0.693 -1.534 1.548 0.687 1.548 1.534 1.548m2.846 -0.917c-1.109 0 -2.007 0.907 -2.007 2.027 0 1.119 0.898 2.026 2.007 2.026s2.008 -0.907 2.008 -2.027c0 -1.119 -0.898 -2.026 -2.008 -2.026m3.313 0.922c1.371 0 2.482 -1.121 2.482 -2.505S20.265 4.513 18.894 4.513s-2.482 1.122 -2.482 2.505 1.112 2.505 2.482 2.505m4.539 -1.553c-1.794 0 -3.249 1.468 -3.249 3.279s1.454 3.279 3.249 3.279c1.794 0 3.248 -1.468 3.248 -3.279s-1.454 -3.279 -3.248 -3.279" fill="#22C55E"/>
  </g>
</svg>